M48
;DRILL file {KiCad 4.0.3+e1-6302~38~ubuntu15.10.1-stable} date Thu Nov 10 16:03:26 2016
;FORMAT={-:-/ absolute / inch / decimal}
FMAT,2
INCH,TZ
T1C0.040
%
G90
G05
M72
T1
X5.7874Y-3.9551
X5.7874Y-4.0551
X5.8874Y-3.9551
X5.8874Y-4.0551
X5.9874Y-3.9551
X5.9874Y-4.0551
X6.0409Y-3.1496
X6.0409Y-3.2496
X6.0874Y-3.9551
X6.0874Y-4.0551
X6.1409Y-3.1496
X6.1409Y-3.2496
X6.1874Y-3.9551
X6.1874Y-4.0551
X6.2409Y-3.1496
X6.2409Y-3.2496
X6.2874Y-3.9551
X6.2874Y-4.0551
X6.3409Y-3.1496
X6.3409Y-3.2496
X6.3874Y-3.9551
X6.3874Y-4.0551
X6.4409Y-3.1496
X6.4409Y-3.2496
X6.4874Y-3.9551
X6.4874Y-4.0551
X6.5409Y-3.1496
X6.5409Y-3.2496
X6.5874Y-3.9551
X6.5874Y-4.0551
X6.6409Y-3.1496
X6.6409Y-3.2496
X6.6874Y-3.9551
X6.6874Y-4.0551
X6.7409Y-3.1496
X6.7409Y-3.2496
X6.7874Y-3.9551
X6.7874Y-4.0551
X6.8409Y-3.1496
X6.8409Y-3.2496
X6.8874Y-3.9551
X6.8874Y-4.0551
X6.9409Y-3.1496
X6.9409Y-3.2496
X6.9874Y-3.9551
X6.9874Y-4.0551
X7.0409Y-3.1496
X7.0409Y-3.2496
X7.0874Y-3.9551
X7.0874Y-4.0551
X7.1409Y-3.1496
X7.1409Y-3.2496
X7.1874Y-3.9551
X7.1874Y-4.0551
X7.2409Y-3.1496
X7.2409Y-3.2496
X7.2874Y-3.9551
X7.2874Y-4.0551
X7.3409Y-3.1496
X7.3409Y-3.2496
X7.3874Y-3.9551
X7.3874Y-4.0551
X7.4409Y-3.1496
X7.4409Y-3.2496
X7.4874Y-3.9551
X7.4874Y-4.0551
X7.5874Y-3.9551
X7.5874Y-4.0551
X7.6874Y-3.9551
X7.6874Y-4.0551
T0
M30
