G04 #@! TF.FileFunction,Copper,L2,Bot,Signal*
%FSLAX46Y46*%
G04 Gerber Fmt 4.6, Leading zero omitted, Abs format (unit mm)*
G04 Created by KiCad (PCBNEW 4.0.3+e1-6302~38~ubuntu15.10.1-stable) date Thu Nov 10 16:03:18 2016*
%MOMM*%
%LPD*%
G01*
G04 APERTURE LIST*
%ADD10C,0.100000*%
%ADD11R,1.727200X1.727200*%
%ADD12O,1.727200X1.727200*%
%ADD13C,1.000000*%
%ADD14C,0.254000*%
G04 APERTURE END LIST*
D10*
D11*
X189000000Y-80000000D03*
D12*
X189000000Y-82540000D03*
X186460000Y-80000000D03*
X186460000Y-82540000D03*
X183920000Y-80000000D03*
X183920000Y-82540000D03*
X181380000Y-80000000D03*
X181380000Y-82540000D03*
X178840000Y-80000000D03*
X178840000Y-82540000D03*
X176300000Y-80000000D03*
X176300000Y-82540000D03*
X173760000Y-80000000D03*
X173760000Y-82540000D03*
X171220000Y-80000000D03*
X171220000Y-82540000D03*
X168680000Y-80000000D03*
X168680000Y-82540000D03*
X166140000Y-80000000D03*
X166140000Y-82540000D03*
X163600000Y-80000000D03*
X163600000Y-82540000D03*
X161060000Y-80000000D03*
X161060000Y-82540000D03*
X158520000Y-80000000D03*
X158520000Y-82540000D03*
X155980000Y-80000000D03*
X155980000Y-82540000D03*
X153440000Y-80000000D03*
X153440000Y-82540000D03*
D11*
X147000000Y-103000000D03*
D12*
X147000000Y-100460000D03*
X149540000Y-103000000D03*
X149540000Y-100460000D03*
X152080000Y-103000000D03*
X152080000Y-100460000D03*
X154620000Y-103000000D03*
X154620000Y-100460000D03*
X157160000Y-103000000D03*
X157160000Y-100460000D03*
X159700000Y-103000000D03*
X159700000Y-100460000D03*
X162240000Y-103000000D03*
X162240000Y-100460000D03*
X164780000Y-103000000D03*
X164780000Y-100460000D03*
X167320000Y-103000000D03*
X167320000Y-100460000D03*
X169860000Y-103000000D03*
X169860000Y-100460000D03*
X172400000Y-103000000D03*
X172400000Y-100460000D03*
X174940000Y-103000000D03*
X174940000Y-100460000D03*
X177480000Y-103000000D03*
X177480000Y-100460000D03*
X180020000Y-103000000D03*
X180020000Y-100460000D03*
X182560000Y-103000000D03*
X182560000Y-100460000D03*
X185100000Y-103000000D03*
X185100000Y-100460000D03*
X187640000Y-103000000D03*
X187640000Y-100460000D03*
X190180000Y-103000000D03*
X190180000Y-100460000D03*
X192720000Y-103000000D03*
X192720000Y-100460000D03*
X195260000Y-103000000D03*
X195260000Y-100460000D03*
D13*
X176300000Y-82540000D02*
X176300000Y-85300000D01*
X176300000Y-85300000D02*
X175600000Y-86000000D01*
X153440000Y-84440000D02*
X153440000Y-82540000D01*
X155000000Y-86000000D02*
X153440000Y-84440000D01*
X175600000Y-86000000D02*
X155000000Y-86000000D01*
X182560000Y-106560000D02*
X182560000Y-103000000D01*
X188000000Y-112000000D02*
X182560000Y-106560000D01*
X203000000Y-112000000D02*
X188000000Y-112000000D01*
X207000000Y-108000000D02*
X203000000Y-112000000D01*
X207000000Y-93000000D02*
X207000000Y-108000000D01*
X206000000Y-92000000D02*
X207000000Y-93000000D01*
X183000000Y-92000000D02*
X206000000Y-92000000D01*
X176300000Y-85300000D02*
X183000000Y-92000000D01*
D14*
G36*
X209873000Y-113873000D02*
X133127000Y-113873000D01*
X133127000Y-100460000D01*
X145472041Y-100460000D01*
X145586115Y-101033489D01*
X145910971Y-101519670D01*
X145924642Y-101528805D01*
X145901083Y-101533238D01*
X145684959Y-101672310D01*
X145539969Y-101884510D01*
X145488960Y-102136400D01*
X145488960Y-103863600D01*
X145533238Y-104098917D01*
X145672310Y-104315041D01*
X145884510Y-104460031D01*
X146136400Y-104511040D01*
X147863600Y-104511040D01*
X148098917Y-104466762D01*
X148315041Y-104327690D01*
X148460031Y-104115490D01*
X148468908Y-104071655D01*
X148937152Y-104384526D01*
X149510641Y-104498600D01*
X149569359Y-104498600D01*
X150142848Y-104384526D01*
X150629029Y-104059670D01*
X150810000Y-103788828D01*
X150990971Y-104059670D01*
X151477152Y-104384526D01*
X152050641Y-104498600D01*
X152109359Y-104498600D01*
X152682848Y-104384526D01*
X153169029Y-104059670D01*
X153350000Y-103788828D01*
X153530971Y-104059670D01*
X154017152Y-104384526D01*
X154590641Y-104498600D01*
X154649359Y-104498600D01*
X155222848Y-104384526D01*
X155709029Y-104059670D01*
X155890000Y-103788828D01*
X156070971Y-104059670D01*
X156557152Y-104384526D01*
X157130641Y-104498600D01*
X157189359Y-104498600D01*
X157762848Y-104384526D01*
X158249029Y-104059670D01*
X158430000Y-103788828D01*
X158610971Y-104059670D01*
X159097152Y-104384526D01*
X159670641Y-104498600D01*
X159729359Y-104498600D01*
X160302848Y-104384526D01*
X160789029Y-104059670D01*
X160970000Y-103788828D01*
X161150971Y-104059670D01*
X161637152Y-104384526D01*
X162210641Y-104498600D01*
X162269359Y-104498600D01*
X162842848Y-104384526D01*
X163329029Y-104059670D01*
X163510000Y-103788828D01*
X163690971Y-104059670D01*
X164177152Y-104384526D01*
X164750641Y-104498600D01*
X164809359Y-104498600D01*
X165382848Y-104384526D01*
X165869029Y-104059670D01*
X166050000Y-103788828D01*
X166230971Y-104059670D01*
X166717152Y-104384526D01*
X167290641Y-104498600D01*
X167349359Y-104498600D01*
X167922848Y-104384526D01*
X168409029Y-104059670D01*
X168590000Y-103788828D01*
X168770971Y-104059670D01*
X169257152Y-104384526D01*
X169830641Y-104498600D01*
X169889359Y-104498600D01*
X170462848Y-104384526D01*
X170949029Y-104059670D01*
X171130000Y-103788828D01*
X171310971Y-104059670D01*
X171797152Y-104384526D01*
X172370641Y-104498600D01*
X172429359Y-104498600D01*
X173002848Y-104384526D01*
X173489029Y-104059670D01*
X173670000Y-103788828D01*
X173850971Y-104059670D01*
X174337152Y-104384526D01*
X174910641Y-104498600D01*
X174969359Y-104498600D01*
X175542848Y-104384526D01*
X176029029Y-104059670D01*
X176210000Y-103788828D01*
X176390971Y-104059670D01*
X176877152Y-104384526D01*
X177450641Y-104498600D01*
X177509359Y-104498600D01*
X178082848Y-104384526D01*
X178569029Y-104059670D01*
X178750000Y-103788828D01*
X178930971Y-104059670D01*
X179417152Y-104384526D01*
X179990641Y-104498600D01*
X180049359Y-104498600D01*
X180622848Y-104384526D01*
X181109029Y-104059670D01*
X181290000Y-103788828D01*
X181425000Y-103990870D01*
X181425000Y-106560000D01*
X181511397Y-106994346D01*
X181757434Y-107362566D01*
X187197434Y-112802566D01*
X187565654Y-113048603D01*
X188000000Y-113135000D01*
X203000000Y-113135000D01*
X203434346Y-113048603D01*
X203802566Y-112802566D01*
X207802566Y-108802566D01*
X208048603Y-108434346D01*
X208135000Y-108000000D01*
X208135000Y-93000000D01*
X208095728Y-92802566D01*
X208048604Y-92565655D01*
X207802567Y-92197434D01*
X206802566Y-91197434D01*
X206434346Y-90951397D01*
X206000000Y-90865000D01*
X183470132Y-90865000D01*
X177435000Y-84829868D01*
X177435000Y-83530870D01*
X177569992Y-83328839D01*
X177951510Y-83746821D01*
X178480973Y-83994968D01*
X178713000Y-83874469D01*
X178713000Y-82667000D01*
X178693000Y-82667000D01*
X178693000Y-82413000D01*
X178713000Y-82413000D01*
X178713000Y-80127000D01*
X178693000Y-80127000D01*
X178693000Y-79873000D01*
X178713000Y-79873000D01*
X178713000Y-78665531D01*
X178967000Y-78665531D01*
X178967000Y-79873000D01*
X178987000Y-79873000D01*
X178987000Y-80127000D01*
X178967000Y-80127000D01*
X178967000Y-82413000D01*
X178987000Y-82413000D01*
X178987000Y-82667000D01*
X178967000Y-82667000D01*
X178967000Y-83874469D01*
X179199027Y-83994968D01*
X179728490Y-83746821D01*
X180110008Y-83328839D01*
X180290971Y-83599670D01*
X180777152Y-83924526D01*
X181350641Y-84038600D01*
X181409359Y-84038600D01*
X181982848Y-83924526D01*
X182469029Y-83599670D01*
X182650000Y-83328828D01*
X182830971Y-83599670D01*
X183317152Y-83924526D01*
X183890641Y-84038600D01*
X183949359Y-84038600D01*
X184522848Y-83924526D01*
X185009029Y-83599670D01*
X185190000Y-83328828D01*
X185370971Y-83599670D01*
X185857152Y-83924526D01*
X186430641Y-84038600D01*
X186489359Y-84038600D01*
X187062848Y-83924526D01*
X187549029Y-83599670D01*
X187730000Y-83328828D01*
X187910971Y-83599670D01*
X188397152Y-83924526D01*
X188970641Y-84038600D01*
X189029359Y-84038600D01*
X189602848Y-83924526D01*
X190089029Y-83599670D01*
X190413885Y-83113489D01*
X190527959Y-82540000D01*
X190413885Y-81966511D01*
X190089029Y-81480330D01*
X190075358Y-81471195D01*
X190098917Y-81466762D01*
X190315041Y-81327690D01*
X190460031Y-81115490D01*
X190511040Y-80863600D01*
X190511040Y-79136400D01*
X190466762Y-78901083D01*
X190327690Y-78684959D01*
X190115490Y-78539969D01*
X189863600Y-78488960D01*
X188136400Y-78488960D01*
X187901083Y-78533238D01*
X187684959Y-78672310D01*
X187539969Y-78884510D01*
X187531092Y-78928345D01*
X187062848Y-78615474D01*
X186489359Y-78501400D01*
X186430641Y-78501400D01*
X185857152Y-78615474D01*
X185370971Y-78940330D01*
X185190000Y-79211172D01*
X185009029Y-78940330D01*
X184522848Y-78615474D01*
X183949359Y-78501400D01*
X183890641Y-78501400D01*
X183317152Y-78615474D01*
X182830971Y-78940330D01*
X182650000Y-79211172D01*
X182469029Y-78940330D01*
X181982848Y-78615474D01*
X181409359Y-78501400D01*
X181350641Y-78501400D01*
X180777152Y-78615474D01*
X180290971Y-78940330D01*
X180110008Y-79211161D01*
X179728490Y-78793179D01*
X179199027Y-78545032D01*
X178967000Y-78665531D01*
X178713000Y-78665531D01*
X178480973Y-78545032D01*
X177951510Y-78793179D01*
X177569992Y-79211161D01*
X177389029Y-78940330D01*
X176902848Y-78615474D01*
X176329359Y-78501400D01*
X176270641Y-78501400D01*
X175697152Y-78615474D01*
X175210971Y-78940330D01*
X175030000Y-79211172D01*
X174849029Y-78940330D01*
X174362848Y-78615474D01*
X173789359Y-78501400D01*
X173730641Y-78501400D01*
X173157152Y-78615474D01*
X172670971Y-78940330D01*
X172490000Y-79211172D01*
X172309029Y-78940330D01*
X171822848Y-78615474D01*
X171249359Y-78501400D01*
X171190641Y-78501400D01*
X170617152Y-78615474D01*
X170130971Y-78940330D01*
X169950000Y-79211172D01*
X169769029Y-78940330D01*
X169282848Y-78615474D01*
X168709359Y-78501400D01*
X168650641Y-78501400D01*
X168077152Y-78615474D01*
X167590971Y-78940330D01*
X167410000Y-79211172D01*
X167229029Y-78940330D01*
X166742848Y-78615474D01*
X166169359Y-78501400D01*
X166110641Y-78501400D01*
X165537152Y-78615474D01*
X165050971Y-78940330D01*
X164870000Y-79211172D01*
X164689029Y-78940330D01*
X164202848Y-78615474D01*
X163629359Y-78501400D01*
X163570641Y-78501400D01*
X162997152Y-78615474D01*
X162510971Y-78940330D01*
X162330000Y-79211172D01*
X162149029Y-78940330D01*
X161662848Y-78615474D01*
X161089359Y-78501400D01*
X161030641Y-78501400D01*
X160457152Y-78615474D01*
X159970971Y-78940330D01*
X159790000Y-79211172D01*
X159609029Y-78940330D01*
X159122848Y-78615474D01*
X158549359Y-78501400D01*
X158490641Y-78501400D01*
X157917152Y-78615474D01*
X157430971Y-78940330D01*
X157250008Y-79211161D01*
X156868490Y-78793179D01*
X156339027Y-78545032D01*
X156107000Y-78665531D01*
X156107000Y-79873000D01*
X156127000Y-79873000D01*
X156127000Y-80127000D01*
X156107000Y-80127000D01*
X156107000Y-82413000D01*
X156127000Y-82413000D01*
X156127000Y-82667000D01*
X156107000Y-82667000D01*
X156107000Y-83874469D01*
X156339027Y-83994968D01*
X156868490Y-83746821D01*
X157250008Y-83328839D01*
X157430971Y-83599670D01*
X157917152Y-83924526D01*
X158490641Y-84038600D01*
X158549359Y-84038600D01*
X159122848Y-83924526D01*
X159609029Y-83599670D01*
X159790000Y-83328828D01*
X159970971Y-83599670D01*
X160457152Y-83924526D01*
X161030641Y-84038600D01*
X161089359Y-84038600D01*
X161662848Y-83924526D01*
X162149029Y-83599670D01*
X162330000Y-83328828D01*
X162510971Y-83599670D01*
X162997152Y-83924526D01*
X163570641Y-84038600D01*
X163629359Y-84038600D01*
X164202848Y-83924526D01*
X164689029Y-83599670D01*
X164870000Y-83328828D01*
X165050971Y-83599670D01*
X165537152Y-83924526D01*
X166110641Y-84038600D01*
X166169359Y-84038600D01*
X166742848Y-83924526D01*
X167229029Y-83599670D01*
X167410000Y-83328828D01*
X167590971Y-83599670D01*
X168077152Y-83924526D01*
X168650641Y-84038600D01*
X168709359Y-84038600D01*
X169282848Y-83924526D01*
X169769029Y-83599670D01*
X169950000Y-83328828D01*
X170130971Y-83599670D01*
X170617152Y-83924526D01*
X171190641Y-84038600D01*
X171249359Y-84038600D01*
X171822848Y-83924526D01*
X172309029Y-83599670D01*
X172490000Y-83328828D01*
X172670971Y-83599670D01*
X173157152Y-83924526D01*
X173730641Y-84038600D01*
X173789359Y-84038600D01*
X174362848Y-83924526D01*
X174849029Y-83599670D01*
X175030000Y-83328828D01*
X175165000Y-83530870D01*
X175165000Y-84829867D01*
X175129868Y-84865000D01*
X155470132Y-84865000D01*
X154575000Y-83969868D01*
X154575000Y-83530870D01*
X154709992Y-83328839D01*
X155091510Y-83746821D01*
X155620973Y-83994968D01*
X155853000Y-83874469D01*
X155853000Y-82667000D01*
X155833000Y-82667000D01*
X155833000Y-82413000D01*
X155853000Y-82413000D01*
X155853000Y-80127000D01*
X155833000Y-80127000D01*
X155833000Y-79873000D01*
X155853000Y-79873000D01*
X155853000Y-78665531D01*
X155620973Y-78545032D01*
X155091510Y-78793179D01*
X154709992Y-79211161D01*
X154529029Y-78940330D01*
X154042848Y-78615474D01*
X153469359Y-78501400D01*
X153410641Y-78501400D01*
X152837152Y-78615474D01*
X152350971Y-78940330D01*
X152026115Y-79426511D01*
X151912041Y-80000000D01*
X152026115Y-80573489D01*
X152350971Y-81059670D01*
X152665752Y-81270000D01*
X152350971Y-81480330D01*
X152026115Y-81966511D01*
X151912041Y-82540000D01*
X152026115Y-83113489D01*
X152305000Y-83530870D01*
X152305000Y-84440000D01*
X152391397Y-84874346D01*
X152442881Y-84951397D01*
X152637434Y-85242566D01*
X154197434Y-86802566D01*
X154565654Y-87048603D01*
X155000000Y-87135000D01*
X175600000Y-87135000D01*
X176034346Y-87048603D01*
X176279598Y-86884730D01*
X182197434Y-92802566D01*
X182565654Y-93048603D01*
X183000000Y-93135000D01*
X205529868Y-93135000D01*
X205865000Y-93470133D01*
X205865000Y-107529868D01*
X202529868Y-110865000D01*
X188470132Y-110865000D01*
X183695000Y-106089868D01*
X183695000Y-103990870D01*
X183830000Y-103788828D01*
X184010971Y-104059670D01*
X184497152Y-104384526D01*
X185070641Y-104498600D01*
X185129359Y-104498600D01*
X185702848Y-104384526D01*
X186189029Y-104059670D01*
X186370000Y-103788828D01*
X186550971Y-104059670D01*
X187037152Y-104384526D01*
X187610641Y-104498600D01*
X187669359Y-104498600D01*
X188242848Y-104384526D01*
X188729029Y-104059670D01*
X188910000Y-103788828D01*
X189090971Y-104059670D01*
X189577152Y-104384526D01*
X190150641Y-104498600D01*
X190209359Y-104498600D01*
X190782848Y-104384526D01*
X191269029Y-104059670D01*
X191450000Y-103788828D01*
X191630971Y-104059670D01*
X192117152Y-104384526D01*
X192690641Y-104498600D01*
X192749359Y-104498600D01*
X193322848Y-104384526D01*
X193809029Y-104059670D01*
X193990000Y-103788828D01*
X194170971Y-104059670D01*
X194657152Y-104384526D01*
X195230641Y-104498600D01*
X195289359Y-104498600D01*
X195862848Y-104384526D01*
X196349029Y-104059670D01*
X196673885Y-103573489D01*
X196787959Y-103000000D01*
X196673885Y-102426511D01*
X196349029Y-101940330D01*
X196034248Y-101730000D01*
X196349029Y-101519670D01*
X196673885Y-101033489D01*
X196787959Y-100460000D01*
X196673885Y-99886511D01*
X196349029Y-99400330D01*
X195862848Y-99075474D01*
X195289359Y-98961400D01*
X195230641Y-98961400D01*
X194657152Y-99075474D01*
X194170971Y-99400330D01*
X193990000Y-99671172D01*
X193809029Y-99400330D01*
X193322848Y-99075474D01*
X192749359Y-98961400D01*
X192690641Y-98961400D01*
X192117152Y-99075474D01*
X191630971Y-99400330D01*
X191450000Y-99671172D01*
X191269029Y-99400330D01*
X190782848Y-99075474D01*
X190209359Y-98961400D01*
X190150641Y-98961400D01*
X189577152Y-99075474D01*
X189090971Y-99400330D01*
X188910000Y-99671172D01*
X188729029Y-99400330D01*
X188242848Y-99075474D01*
X187669359Y-98961400D01*
X187610641Y-98961400D01*
X187037152Y-99075474D01*
X186550971Y-99400330D01*
X186370000Y-99671172D01*
X186189029Y-99400330D01*
X185702848Y-99075474D01*
X185129359Y-98961400D01*
X185070641Y-98961400D01*
X184497152Y-99075474D01*
X184010971Y-99400330D01*
X183830008Y-99671161D01*
X183448490Y-99253179D01*
X182919027Y-99005032D01*
X182687000Y-99125531D01*
X182687000Y-100333000D01*
X182707000Y-100333000D01*
X182707000Y-100587000D01*
X182687000Y-100587000D01*
X182687000Y-100607000D01*
X182433000Y-100607000D01*
X182433000Y-100587000D01*
X182413000Y-100587000D01*
X182413000Y-100333000D01*
X182433000Y-100333000D01*
X182433000Y-99125531D01*
X182200973Y-99005032D01*
X181671510Y-99253179D01*
X181289992Y-99671161D01*
X181109029Y-99400330D01*
X180622848Y-99075474D01*
X180049359Y-98961400D01*
X179990641Y-98961400D01*
X179417152Y-99075474D01*
X178930971Y-99400330D01*
X178750000Y-99671172D01*
X178569029Y-99400330D01*
X178082848Y-99075474D01*
X177509359Y-98961400D01*
X177450641Y-98961400D01*
X176877152Y-99075474D01*
X176390971Y-99400330D01*
X176210000Y-99671172D01*
X176029029Y-99400330D01*
X175542848Y-99075474D01*
X174969359Y-98961400D01*
X174910641Y-98961400D01*
X174337152Y-99075474D01*
X173850971Y-99400330D01*
X173670000Y-99671172D01*
X173489029Y-99400330D01*
X173002848Y-99075474D01*
X172429359Y-98961400D01*
X172370641Y-98961400D01*
X171797152Y-99075474D01*
X171310971Y-99400330D01*
X171130000Y-99671172D01*
X170949029Y-99400330D01*
X170462848Y-99075474D01*
X169889359Y-98961400D01*
X169830641Y-98961400D01*
X169257152Y-99075474D01*
X168770971Y-99400330D01*
X168590000Y-99671172D01*
X168409029Y-99400330D01*
X167922848Y-99075474D01*
X167349359Y-98961400D01*
X167290641Y-98961400D01*
X166717152Y-99075474D01*
X166230971Y-99400330D01*
X166050000Y-99671172D01*
X165869029Y-99400330D01*
X165382848Y-99075474D01*
X164809359Y-98961400D01*
X164750641Y-98961400D01*
X164177152Y-99075474D01*
X163690971Y-99400330D01*
X163510000Y-99671172D01*
X163329029Y-99400330D01*
X162842848Y-99075474D01*
X162269359Y-98961400D01*
X162210641Y-98961400D01*
X161637152Y-99075474D01*
X161150971Y-99400330D01*
X160970008Y-99671161D01*
X160588490Y-99253179D01*
X160059027Y-99005032D01*
X159827000Y-99125531D01*
X159827000Y-100333000D01*
X159847000Y-100333000D01*
X159847000Y-100587000D01*
X159827000Y-100587000D01*
X159827000Y-100607000D01*
X159573000Y-100607000D01*
X159573000Y-100587000D01*
X159553000Y-100587000D01*
X159553000Y-100333000D01*
X159573000Y-100333000D01*
X159573000Y-99125531D01*
X159340973Y-99005032D01*
X158811510Y-99253179D01*
X158429992Y-99671161D01*
X158249029Y-99400330D01*
X157762848Y-99075474D01*
X157189359Y-98961400D01*
X157130641Y-98961400D01*
X156557152Y-99075474D01*
X156070971Y-99400330D01*
X155890000Y-99671172D01*
X155709029Y-99400330D01*
X155222848Y-99075474D01*
X154649359Y-98961400D01*
X154590641Y-98961400D01*
X154017152Y-99075474D01*
X153530971Y-99400330D01*
X153350000Y-99671172D01*
X153169029Y-99400330D01*
X152682848Y-99075474D01*
X152109359Y-98961400D01*
X152050641Y-98961400D01*
X151477152Y-99075474D01*
X150990971Y-99400330D01*
X150810000Y-99671172D01*
X150629029Y-99400330D01*
X150142848Y-99075474D01*
X149569359Y-98961400D01*
X149510641Y-98961400D01*
X148937152Y-99075474D01*
X148450971Y-99400330D01*
X148270000Y-99671172D01*
X148089029Y-99400330D01*
X147602848Y-99075474D01*
X147029359Y-98961400D01*
X146970641Y-98961400D01*
X146397152Y-99075474D01*
X145910971Y-99400330D01*
X145586115Y-99886511D01*
X145472041Y-100460000D01*
X133127000Y-100460000D01*
X133127000Y-64127000D01*
X209873000Y-64127000D01*
X209873000Y-113873000D01*
X209873000Y-113873000D01*
G37*
X209873000Y-113873000D02*
X133127000Y-113873000D01*
X133127000Y-100460000D01*
X145472041Y-100460000D01*
X145586115Y-101033489D01*
X145910971Y-101519670D01*
X145924642Y-101528805D01*
X145901083Y-101533238D01*
X145684959Y-101672310D01*
X145539969Y-101884510D01*
X145488960Y-102136400D01*
X145488960Y-103863600D01*
X145533238Y-104098917D01*
X145672310Y-104315041D01*
X145884510Y-104460031D01*
X146136400Y-104511040D01*
X147863600Y-104511040D01*
X148098917Y-104466762D01*
X148315041Y-104327690D01*
X148460031Y-104115490D01*
X148468908Y-104071655D01*
X148937152Y-104384526D01*
X149510641Y-104498600D01*
X149569359Y-104498600D01*
X150142848Y-104384526D01*
X150629029Y-104059670D01*
X150810000Y-103788828D01*
X150990971Y-104059670D01*
X151477152Y-104384526D01*
X152050641Y-104498600D01*
X152109359Y-104498600D01*
X152682848Y-104384526D01*
X153169029Y-104059670D01*
X153350000Y-103788828D01*
X153530971Y-104059670D01*
X154017152Y-104384526D01*
X154590641Y-104498600D01*
X154649359Y-104498600D01*
X155222848Y-104384526D01*
X155709029Y-104059670D01*
X155890000Y-103788828D01*
X156070971Y-104059670D01*
X156557152Y-104384526D01*
X157130641Y-104498600D01*
X157189359Y-104498600D01*
X157762848Y-104384526D01*
X158249029Y-104059670D01*
X158430000Y-103788828D01*
X158610971Y-104059670D01*
X159097152Y-104384526D01*
X159670641Y-104498600D01*
X159729359Y-104498600D01*
X160302848Y-104384526D01*
X160789029Y-104059670D01*
X160970000Y-103788828D01*
X161150971Y-104059670D01*
X161637152Y-104384526D01*
X162210641Y-104498600D01*
X162269359Y-104498600D01*
X162842848Y-104384526D01*
X163329029Y-104059670D01*
X163510000Y-103788828D01*
X163690971Y-104059670D01*
X164177152Y-104384526D01*
X164750641Y-104498600D01*
X164809359Y-104498600D01*
X165382848Y-104384526D01*
X165869029Y-104059670D01*
X166050000Y-103788828D01*
X166230971Y-104059670D01*
X166717152Y-104384526D01*
X167290641Y-104498600D01*
X167349359Y-104498600D01*
X167922848Y-104384526D01*
X168409029Y-104059670D01*
X168590000Y-103788828D01*
X168770971Y-104059670D01*
X169257152Y-104384526D01*
X169830641Y-104498600D01*
X169889359Y-104498600D01*
X170462848Y-104384526D01*
X170949029Y-104059670D01*
X171130000Y-103788828D01*
X171310971Y-104059670D01*
X171797152Y-104384526D01*
X172370641Y-104498600D01*
X172429359Y-104498600D01*
X173002848Y-104384526D01*
X173489029Y-104059670D01*
X173670000Y-103788828D01*
X173850971Y-104059670D01*
X174337152Y-104384526D01*
X174910641Y-104498600D01*
X174969359Y-104498600D01*
X175542848Y-104384526D01*
X176029029Y-104059670D01*
X176210000Y-103788828D01*
X176390971Y-104059670D01*
X176877152Y-104384526D01*
X177450641Y-104498600D01*
X177509359Y-104498600D01*
X178082848Y-104384526D01*
X178569029Y-104059670D01*
X178750000Y-103788828D01*
X178930971Y-104059670D01*
X179417152Y-104384526D01*
X179990641Y-104498600D01*
X180049359Y-104498600D01*
X180622848Y-104384526D01*
X181109029Y-104059670D01*
X181290000Y-103788828D01*
X181425000Y-103990870D01*
X181425000Y-106560000D01*
X181511397Y-106994346D01*
X181757434Y-107362566D01*
X187197434Y-112802566D01*
X187565654Y-113048603D01*
X188000000Y-113135000D01*
X203000000Y-113135000D01*
X203434346Y-113048603D01*
X203802566Y-112802566D01*
X207802566Y-108802566D01*
X208048603Y-108434346D01*
X208135000Y-108000000D01*
X208135000Y-93000000D01*
X208095728Y-92802566D01*
X208048604Y-92565655D01*
X207802567Y-92197434D01*
X206802566Y-91197434D01*
X206434346Y-90951397D01*
X206000000Y-90865000D01*
X183470132Y-90865000D01*
X177435000Y-84829868D01*
X177435000Y-83530870D01*
X177569992Y-83328839D01*
X177951510Y-83746821D01*
X178480973Y-83994968D01*
X178713000Y-83874469D01*
X178713000Y-82667000D01*
X178693000Y-82667000D01*
X178693000Y-82413000D01*
X178713000Y-82413000D01*
X178713000Y-80127000D01*
X178693000Y-80127000D01*
X178693000Y-79873000D01*
X178713000Y-79873000D01*
X178713000Y-78665531D01*
X178967000Y-78665531D01*
X178967000Y-79873000D01*
X178987000Y-79873000D01*
X178987000Y-80127000D01*
X178967000Y-80127000D01*
X178967000Y-82413000D01*
X178987000Y-82413000D01*
X178987000Y-82667000D01*
X178967000Y-82667000D01*
X178967000Y-83874469D01*
X179199027Y-83994968D01*
X179728490Y-83746821D01*
X180110008Y-83328839D01*
X180290971Y-83599670D01*
X180777152Y-83924526D01*
X181350641Y-84038600D01*
X181409359Y-84038600D01*
X181982848Y-83924526D01*
X182469029Y-83599670D01*
X182650000Y-83328828D01*
X182830971Y-83599670D01*
X183317152Y-83924526D01*
X183890641Y-84038600D01*
X183949359Y-84038600D01*
X184522848Y-83924526D01*
X185009029Y-83599670D01*
X185190000Y-83328828D01*
X185370971Y-83599670D01*
X185857152Y-83924526D01*
X186430641Y-84038600D01*
X186489359Y-84038600D01*
X187062848Y-83924526D01*
X187549029Y-83599670D01*
X187730000Y-83328828D01*
X187910971Y-83599670D01*
X188397152Y-83924526D01*
X188970641Y-84038600D01*
X189029359Y-84038600D01*
X189602848Y-83924526D01*
X190089029Y-83599670D01*
X190413885Y-83113489D01*
X190527959Y-82540000D01*
X190413885Y-81966511D01*
X190089029Y-81480330D01*
X190075358Y-81471195D01*
X190098917Y-81466762D01*
X190315041Y-81327690D01*
X190460031Y-81115490D01*
X190511040Y-80863600D01*
X190511040Y-79136400D01*
X190466762Y-78901083D01*
X190327690Y-78684959D01*
X190115490Y-78539969D01*
X189863600Y-78488960D01*
X188136400Y-78488960D01*
X187901083Y-78533238D01*
X187684959Y-78672310D01*
X187539969Y-78884510D01*
X187531092Y-78928345D01*
X187062848Y-78615474D01*
X186489359Y-78501400D01*
X186430641Y-78501400D01*
X185857152Y-78615474D01*
X185370971Y-78940330D01*
X185190000Y-79211172D01*
X185009029Y-78940330D01*
X184522848Y-78615474D01*
X183949359Y-78501400D01*
X183890641Y-78501400D01*
X183317152Y-78615474D01*
X182830971Y-78940330D01*
X182650000Y-79211172D01*
X182469029Y-78940330D01*
X181982848Y-78615474D01*
X181409359Y-78501400D01*
X181350641Y-78501400D01*
X180777152Y-78615474D01*
X180290971Y-78940330D01*
X180110008Y-79211161D01*
X179728490Y-78793179D01*
X179199027Y-78545032D01*
X178967000Y-78665531D01*
X178713000Y-78665531D01*
X178480973Y-78545032D01*
X177951510Y-78793179D01*
X177569992Y-79211161D01*
X177389029Y-78940330D01*
X176902848Y-78615474D01*
X176329359Y-78501400D01*
X176270641Y-78501400D01*
X175697152Y-78615474D01*
X175210971Y-78940330D01*
X175030000Y-79211172D01*
X174849029Y-78940330D01*
X174362848Y-78615474D01*
X173789359Y-78501400D01*
X173730641Y-78501400D01*
X173157152Y-78615474D01*
X172670971Y-78940330D01*
X172490000Y-79211172D01*
X172309029Y-78940330D01*
X171822848Y-78615474D01*
X171249359Y-78501400D01*
X171190641Y-78501400D01*
X170617152Y-78615474D01*
X170130971Y-78940330D01*
X169950000Y-79211172D01*
X169769029Y-78940330D01*
X169282848Y-78615474D01*
X168709359Y-78501400D01*
X168650641Y-78501400D01*
X168077152Y-78615474D01*
X167590971Y-78940330D01*
X167410000Y-79211172D01*
X167229029Y-78940330D01*
X166742848Y-78615474D01*
X166169359Y-78501400D01*
X166110641Y-78501400D01*
X165537152Y-78615474D01*
X165050971Y-78940330D01*
X164870000Y-79211172D01*
X164689029Y-78940330D01*
X164202848Y-78615474D01*
X163629359Y-78501400D01*
X163570641Y-78501400D01*
X162997152Y-78615474D01*
X162510971Y-78940330D01*
X162330000Y-79211172D01*
X162149029Y-78940330D01*
X161662848Y-78615474D01*
X161089359Y-78501400D01*
X161030641Y-78501400D01*
X160457152Y-78615474D01*
X159970971Y-78940330D01*
X159790000Y-79211172D01*
X159609029Y-78940330D01*
X159122848Y-78615474D01*
X158549359Y-78501400D01*
X158490641Y-78501400D01*
X157917152Y-78615474D01*
X157430971Y-78940330D01*
X157250008Y-79211161D01*
X156868490Y-78793179D01*
X156339027Y-78545032D01*
X156107000Y-78665531D01*
X156107000Y-79873000D01*
X156127000Y-79873000D01*
X156127000Y-80127000D01*
X156107000Y-80127000D01*
X156107000Y-82413000D01*
X156127000Y-82413000D01*
X156127000Y-82667000D01*
X156107000Y-82667000D01*
X156107000Y-83874469D01*
X156339027Y-83994968D01*
X156868490Y-83746821D01*
X157250008Y-83328839D01*
X157430971Y-83599670D01*
X157917152Y-83924526D01*
X158490641Y-84038600D01*
X158549359Y-84038600D01*
X159122848Y-83924526D01*
X159609029Y-83599670D01*
X159790000Y-83328828D01*
X159970971Y-83599670D01*
X160457152Y-83924526D01*
X161030641Y-84038600D01*
X161089359Y-84038600D01*
X161662848Y-83924526D01*
X162149029Y-83599670D01*
X162330000Y-83328828D01*
X162510971Y-83599670D01*
X162997152Y-83924526D01*
X163570641Y-84038600D01*
X163629359Y-84038600D01*
X164202848Y-83924526D01*
X164689029Y-83599670D01*
X164870000Y-83328828D01*
X165050971Y-83599670D01*
X165537152Y-83924526D01*
X166110641Y-84038600D01*
X166169359Y-84038600D01*
X166742848Y-83924526D01*
X167229029Y-83599670D01*
X167410000Y-83328828D01*
X167590971Y-83599670D01*
X168077152Y-83924526D01*
X168650641Y-84038600D01*
X168709359Y-84038600D01*
X169282848Y-83924526D01*
X169769029Y-83599670D01*
X169950000Y-83328828D01*
X170130971Y-83599670D01*
X170617152Y-83924526D01*
X171190641Y-84038600D01*
X171249359Y-84038600D01*
X171822848Y-83924526D01*
X172309029Y-83599670D01*
X172490000Y-83328828D01*
X172670971Y-83599670D01*
X173157152Y-83924526D01*
X173730641Y-84038600D01*
X173789359Y-84038600D01*
X174362848Y-83924526D01*
X174849029Y-83599670D01*
X175030000Y-83328828D01*
X175165000Y-83530870D01*
X175165000Y-84829867D01*
X175129868Y-84865000D01*
X155470132Y-84865000D01*
X154575000Y-83969868D01*
X154575000Y-83530870D01*
X154709992Y-83328839D01*
X155091510Y-83746821D01*
X155620973Y-83994968D01*
X155853000Y-83874469D01*
X155853000Y-82667000D01*
X155833000Y-82667000D01*
X155833000Y-82413000D01*
X155853000Y-82413000D01*
X155853000Y-80127000D01*
X155833000Y-80127000D01*
X155833000Y-79873000D01*
X155853000Y-79873000D01*
X155853000Y-78665531D01*
X155620973Y-78545032D01*
X155091510Y-78793179D01*
X154709992Y-79211161D01*
X154529029Y-78940330D01*
X154042848Y-78615474D01*
X153469359Y-78501400D01*
X153410641Y-78501400D01*
X152837152Y-78615474D01*
X152350971Y-78940330D01*
X152026115Y-79426511D01*
X151912041Y-80000000D01*
X152026115Y-80573489D01*
X152350971Y-81059670D01*
X152665752Y-81270000D01*
X152350971Y-81480330D01*
X152026115Y-81966511D01*
X151912041Y-82540000D01*
X152026115Y-83113489D01*
X152305000Y-83530870D01*
X152305000Y-84440000D01*
X152391397Y-84874346D01*
X152442881Y-84951397D01*
X152637434Y-85242566D01*
X154197434Y-86802566D01*
X154565654Y-87048603D01*
X155000000Y-87135000D01*
X175600000Y-87135000D01*
X176034346Y-87048603D01*
X176279598Y-86884730D01*
X182197434Y-92802566D01*
X182565654Y-93048603D01*
X183000000Y-93135000D01*
X205529868Y-93135000D01*
X205865000Y-93470133D01*
X205865000Y-107529868D01*
X202529868Y-110865000D01*
X188470132Y-110865000D01*
X183695000Y-106089868D01*
X183695000Y-103990870D01*
X183830000Y-103788828D01*
X184010971Y-104059670D01*
X184497152Y-104384526D01*
X185070641Y-104498600D01*
X185129359Y-104498600D01*
X185702848Y-104384526D01*
X186189029Y-104059670D01*
X186370000Y-103788828D01*
X186550971Y-104059670D01*
X187037152Y-104384526D01*
X187610641Y-104498600D01*
X187669359Y-104498600D01*
X188242848Y-104384526D01*
X188729029Y-104059670D01*
X188910000Y-103788828D01*
X189090971Y-104059670D01*
X189577152Y-104384526D01*
X190150641Y-104498600D01*
X190209359Y-104498600D01*
X190782848Y-104384526D01*
X191269029Y-104059670D01*
X191450000Y-103788828D01*
X191630971Y-104059670D01*
X192117152Y-104384526D01*
X192690641Y-104498600D01*
X192749359Y-104498600D01*
X193322848Y-104384526D01*
X193809029Y-104059670D01*
X193990000Y-103788828D01*
X194170971Y-104059670D01*
X194657152Y-104384526D01*
X195230641Y-104498600D01*
X195289359Y-104498600D01*
X195862848Y-104384526D01*
X196349029Y-104059670D01*
X196673885Y-103573489D01*
X196787959Y-103000000D01*
X196673885Y-102426511D01*
X196349029Y-101940330D01*
X196034248Y-101730000D01*
X196349029Y-101519670D01*
X196673885Y-101033489D01*
X196787959Y-100460000D01*
X196673885Y-99886511D01*
X196349029Y-99400330D01*
X195862848Y-99075474D01*
X195289359Y-98961400D01*
X195230641Y-98961400D01*
X194657152Y-99075474D01*
X194170971Y-99400330D01*
X193990000Y-99671172D01*
X193809029Y-99400330D01*
X193322848Y-99075474D01*
X192749359Y-98961400D01*
X192690641Y-98961400D01*
X192117152Y-99075474D01*
X191630971Y-99400330D01*
X191450000Y-99671172D01*
X191269029Y-99400330D01*
X190782848Y-99075474D01*
X190209359Y-98961400D01*
X190150641Y-98961400D01*
X189577152Y-99075474D01*
X189090971Y-99400330D01*
X188910000Y-99671172D01*
X188729029Y-99400330D01*
X188242848Y-99075474D01*
X187669359Y-98961400D01*
X187610641Y-98961400D01*
X187037152Y-99075474D01*
X186550971Y-99400330D01*
X186370000Y-99671172D01*
X186189029Y-99400330D01*
X185702848Y-99075474D01*
X185129359Y-98961400D01*
X185070641Y-98961400D01*
X184497152Y-99075474D01*
X184010971Y-99400330D01*
X183830008Y-99671161D01*
X183448490Y-99253179D01*
X182919027Y-99005032D01*
X182687000Y-99125531D01*
X182687000Y-100333000D01*
X182707000Y-100333000D01*
X182707000Y-100587000D01*
X182687000Y-100587000D01*
X182687000Y-100607000D01*
X182433000Y-100607000D01*
X182433000Y-100587000D01*
X182413000Y-100587000D01*
X182413000Y-100333000D01*
X182433000Y-100333000D01*
X182433000Y-99125531D01*
X182200973Y-99005032D01*
X181671510Y-99253179D01*
X181289992Y-99671161D01*
X181109029Y-99400330D01*
X180622848Y-99075474D01*
X180049359Y-98961400D01*
X179990641Y-98961400D01*
X179417152Y-99075474D01*
X178930971Y-99400330D01*
X178750000Y-99671172D01*
X178569029Y-99400330D01*
X178082848Y-99075474D01*
X177509359Y-98961400D01*
X177450641Y-98961400D01*
X176877152Y-99075474D01*
X176390971Y-99400330D01*
X176210000Y-99671172D01*
X176029029Y-99400330D01*
X175542848Y-99075474D01*
X174969359Y-98961400D01*
X174910641Y-98961400D01*
X174337152Y-99075474D01*
X173850971Y-99400330D01*
X173670000Y-99671172D01*
X173489029Y-99400330D01*
X173002848Y-99075474D01*
X172429359Y-98961400D01*
X172370641Y-98961400D01*
X171797152Y-99075474D01*
X171310971Y-99400330D01*
X171130000Y-99671172D01*
X170949029Y-99400330D01*
X170462848Y-99075474D01*
X169889359Y-98961400D01*
X169830641Y-98961400D01*
X169257152Y-99075474D01*
X168770971Y-99400330D01*
X168590000Y-99671172D01*
X168409029Y-99400330D01*
X167922848Y-99075474D01*
X167349359Y-98961400D01*
X167290641Y-98961400D01*
X166717152Y-99075474D01*
X166230971Y-99400330D01*
X166050000Y-99671172D01*
X165869029Y-99400330D01*
X165382848Y-99075474D01*
X164809359Y-98961400D01*
X164750641Y-98961400D01*
X164177152Y-99075474D01*
X163690971Y-99400330D01*
X163510000Y-99671172D01*
X163329029Y-99400330D01*
X162842848Y-99075474D01*
X162269359Y-98961400D01*
X162210641Y-98961400D01*
X161637152Y-99075474D01*
X161150971Y-99400330D01*
X160970008Y-99671161D01*
X160588490Y-99253179D01*
X160059027Y-99005032D01*
X159827000Y-99125531D01*
X159827000Y-100333000D01*
X159847000Y-100333000D01*
X159847000Y-100587000D01*
X159827000Y-100587000D01*
X159827000Y-100607000D01*
X159573000Y-100607000D01*
X159573000Y-100587000D01*
X159553000Y-100587000D01*
X159553000Y-100333000D01*
X159573000Y-100333000D01*
X159573000Y-99125531D01*
X159340973Y-99005032D01*
X158811510Y-99253179D01*
X158429992Y-99671161D01*
X158249029Y-99400330D01*
X157762848Y-99075474D01*
X157189359Y-98961400D01*
X157130641Y-98961400D01*
X156557152Y-99075474D01*
X156070971Y-99400330D01*
X155890000Y-99671172D01*
X155709029Y-99400330D01*
X155222848Y-99075474D01*
X154649359Y-98961400D01*
X154590641Y-98961400D01*
X154017152Y-99075474D01*
X153530971Y-99400330D01*
X153350000Y-99671172D01*
X153169029Y-99400330D01*
X152682848Y-99075474D01*
X152109359Y-98961400D01*
X152050641Y-98961400D01*
X151477152Y-99075474D01*
X150990971Y-99400330D01*
X150810000Y-99671172D01*
X150629029Y-99400330D01*
X150142848Y-99075474D01*
X149569359Y-98961400D01*
X149510641Y-98961400D01*
X148937152Y-99075474D01*
X148450971Y-99400330D01*
X148270000Y-99671172D01*
X148089029Y-99400330D01*
X147602848Y-99075474D01*
X147029359Y-98961400D01*
X146970641Y-98961400D01*
X146397152Y-99075474D01*
X145910971Y-99400330D01*
X145586115Y-99886511D01*
X145472041Y-100460000D01*
X133127000Y-100460000D01*
X133127000Y-64127000D01*
X209873000Y-64127000D01*
X209873000Y-113873000D01*
M02*
