G04 #@! TF.FileFunction,Soldermask,Bot*
%FSLAX46Y46*%
G04 Gerber Fmt 4.6, Leading zero omitted, Abs format (unit mm)*
G04 Created by KiCad (PCBNEW 4.0.3+e1-6302~38~ubuntu15.10.1-stable) date Thu Nov 10 16:03:18 2016*
%MOMM*%
%LPD*%
G01*
G04 APERTURE LIST*
%ADD10C,0.100000*%
%ADD11R,2.127200X2.127200*%
%ADD12O,2.127200X2.127200*%
G04 APERTURE END LIST*
D10*
D11*
X189000000Y-80000000D03*
D12*
X189000000Y-82540000D03*
X186460000Y-80000000D03*
X186460000Y-82540000D03*
X183920000Y-80000000D03*
X183920000Y-82540000D03*
X181380000Y-80000000D03*
X181380000Y-82540000D03*
X178840000Y-80000000D03*
X178840000Y-82540000D03*
X176300000Y-80000000D03*
X176300000Y-82540000D03*
X173760000Y-80000000D03*
X173760000Y-82540000D03*
X171220000Y-80000000D03*
X171220000Y-82540000D03*
X168680000Y-80000000D03*
X168680000Y-82540000D03*
X166140000Y-80000000D03*
X166140000Y-82540000D03*
X163600000Y-80000000D03*
X163600000Y-82540000D03*
X161060000Y-80000000D03*
X161060000Y-82540000D03*
X158520000Y-80000000D03*
X158520000Y-82540000D03*
X155980000Y-80000000D03*
X155980000Y-82540000D03*
X153440000Y-80000000D03*
X153440000Y-82540000D03*
D11*
X147000000Y-103000000D03*
D12*
X147000000Y-100460000D03*
X149540000Y-103000000D03*
X149540000Y-100460000D03*
X152080000Y-103000000D03*
X152080000Y-100460000D03*
X154620000Y-103000000D03*
X154620000Y-100460000D03*
X157160000Y-103000000D03*
X157160000Y-100460000D03*
X159700000Y-103000000D03*
X159700000Y-100460000D03*
X162240000Y-103000000D03*
X162240000Y-100460000D03*
X164780000Y-103000000D03*
X164780000Y-100460000D03*
X167320000Y-103000000D03*
X167320000Y-100460000D03*
X169860000Y-103000000D03*
X169860000Y-100460000D03*
X172400000Y-103000000D03*
X172400000Y-100460000D03*
X174940000Y-103000000D03*
X174940000Y-100460000D03*
X177480000Y-103000000D03*
X177480000Y-100460000D03*
X180020000Y-103000000D03*
X180020000Y-100460000D03*
X182560000Y-103000000D03*
X182560000Y-100460000D03*
X185100000Y-103000000D03*
X185100000Y-100460000D03*
X187640000Y-103000000D03*
X187640000Y-100460000D03*
X190180000Y-103000000D03*
X190180000Y-100460000D03*
X192720000Y-103000000D03*
X192720000Y-100460000D03*
X195260000Y-103000000D03*
X195260000Y-100460000D03*
M02*
