G04 #@! TF.FileFunction,Copper,L1,Top,Signal*
%FSLAX46Y46*%
G04 Gerber Fmt 4.6, Leading zero omitted, Abs format (unit mm)*
G04 Created by KiCad (PCBNEW 4.0.3+e1-6302~38~ubuntu15.10.1-stable) date Thu Nov 10 16:03:18 2016*
%MOMM*%
%LPD*%
G01*
G04 APERTURE LIST*
%ADD10C,0.100000*%
%ADD11R,1.727200X1.727200*%
%ADD12O,1.727200X1.727200*%
%ADD13C,1.000000*%
%ADD14C,0.254000*%
G04 APERTURE END LIST*
D10*
D11*
X189000000Y-80000000D03*
D12*
X189000000Y-82540000D03*
X186460000Y-80000000D03*
X186460000Y-82540000D03*
X183920000Y-80000000D03*
X183920000Y-82540000D03*
X181380000Y-80000000D03*
X181380000Y-82540000D03*
X178840000Y-80000000D03*
X178840000Y-82540000D03*
X176300000Y-80000000D03*
X176300000Y-82540000D03*
X173760000Y-80000000D03*
X173760000Y-82540000D03*
X171220000Y-80000000D03*
X171220000Y-82540000D03*
X168680000Y-80000000D03*
X168680000Y-82540000D03*
X166140000Y-80000000D03*
X166140000Y-82540000D03*
X163600000Y-80000000D03*
X163600000Y-82540000D03*
X161060000Y-80000000D03*
X161060000Y-82540000D03*
X158520000Y-80000000D03*
X158520000Y-82540000D03*
X155980000Y-80000000D03*
X155980000Y-82540000D03*
X153440000Y-80000000D03*
X153440000Y-82540000D03*
D11*
X147000000Y-103000000D03*
D12*
X147000000Y-100460000D03*
X149540000Y-103000000D03*
X149540000Y-100460000D03*
X152080000Y-103000000D03*
X152080000Y-100460000D03*
X154620000Y-103000000D03*
X154620000Y-100460000D03*
X157160000Y-103000000D03*
X157160000Y-100460000D03*
X159700000Y-103000000D03*
X159700000Y-100460000D03*
X162240000Y-103000000D03*
X162240000Y-100460000D03*
X164780000Y-103000000D03*
X164780000Y-100460000D03*
X167320000Y-103000000D03*
X167320000Y-100460000D03*
X169860000Y-103000000D03*
X169860000Y-100460000D03*
X172400000Y-103000000D03*
X172400000Y-100460000D03*
X174940000Y-103000000D03*
X174940000Y-100460000D03*
X177480000Y-103000000D03*
X177480000Y-100460000D03*
X180020000Y-103000000D03*
X180020000Y-100460000D03*
X182560000Y-103000000D03*
X182560000Y-100460000D03*
X185100000Y-103000000D03*
X185100000Y-100460000D03*
X187640000Y-103000000D03*
X187640000Y-100460000D03*
X190180000Y-103000000D03*
X190180000Y-100460000D03*
X192720000Y-103000000D03*
X192720000Y-100460000D03*
X195260000Y-103000000D03*
X195260000Y-100460000D03*
D13*
X192720000Y-100460000D02*
X192720000Y-89280000D01*
X192000000Y-83000000D02*
X189000000Y-80000000D01*
X192000000Y-88560000D02*
X192000000Y-83000000D01*
X192720000Y-89280000D02*
X192000000Y-88560000D01*
X190180000Y-100460000D02*
X190180000Y-88180000D01*
X189000000Y-87000000D02*
X189000000Y-82540000D01*
X190180000Y-88180000D02*
X189000000Y-87000000D01*
X186460000Y-80000000D02*
X186460000Y-77540000D01*
X195260000Y-80260000D02*
X195260000Y-100460000D01*
X191000000Y-76000000D02*
X195260000Y-80260000D01*
X188000000Y-76000000D02*
X191000000Y-76000000D01*
X186460000Y-77540000D02*
X188000000Y-76000000D01*
X187640000Y-100460000D02*
X187640000Y-88640000D01*
X186460000Y-87460000D02*
X186460000Y-82540000D01*
X187640000Y-88640000D02*
X186460000Y-87460000D01*
X190180000Y-103000000D02*
X190180000Y-104180000D01*
X183920000Y-78080000D02*
X183920000Y-80000000D01*
X188000000Y-74000000D02*
X183920000Y-78080000D01*
X192000000Y-74000000D02*
X188000000Y-74000000D01*
X199000000Y-81000000D02*
X192000000Y-74000000D01*
X199000000Y-104000000D02*
X199000000Y-81000000D01*
X197000000Y-106000000D02*
X199000000Y-104000000D01*
X192000000Y-106000000D02*
X197000000Y-106000000D01*
X190180000Y-104180000D02*
X192000000Y-106000000D01*
X185100000Y-100460000D02*
X185100000Y-89100000D01*
X183920000Y-87920000D02*
X183920000Y-82540000D01*
X185100000Y-89100000D02*
X183920000Y-87920000D01*
X187640000Y-103000000D02*
X187640000Y-104640000D01*
X181380000Y-77620000D02*
X181380000Y-80000000D01*
X187000000Y-72000000D02*
X181380000Y-77620000D01*
X193000000Y-72000000D02*
X187000000Y-72000000D01*
X201000000Y-80000000D02*
X193000000Y-72000000D01*
X201000000Y-106000000D02*
X201000000Y-80000000D01*
X199000000Y-108000000D02*
X201000000Y-106000000D01*
X191000000Y-108000000D02*
X199000000Y-108000000D01*
X187640000Y-104640000D02*
X191000000Y-108000000D01*
X180020000Y-100460000D02*
X180020000Y-89980000D01*
X181380000Y-88620000D02*
X181380000Y-82540000D01*
X180020000Y-89980000D02*
X181380000Y-88620000D01*
X153440000Y-82540000D02*
X153440000Y-80000000D01*
X176300000Y-82540000D02*
X176300000Y-80000000D01*
X185100000Y-103000000D02*
X185100000Y-104100000D01*
X173760000Y-75240000D02*
X173760000Y-80000000D01*
X179000000Y-70000000D02*
X173760000Y-75240000D01*
X193000000Y-70000000D02*
X179000000Y-70000000D01*
X203000000Y-80000000D02*
X193000000Y-70000000D01*
X203000000Y-106000000D02*
X203000000Y-80000000D01*
X199000000Y-110000000D02*
X203000000Y-106000000D01*
X191000000Y-110000000D02*
X199000000Y-110000000D01*
X185100000Y-104100000D02*
X191000000Y-110000000D01*
X177480000Y-100460000D02*
X177480000Y-90480000D01*
X173760000Y-86760000D02*
X173760000Y-82540000D01*
X177480000Y-90480000D02*
X173760000Y-86760000D01*
X171220000Y-80000000D02*
X171220000Y-78220000D01*
X154620000Y-106380000D02*
X154620000Y-103000000D01*
X151000000Y-110000000D02*
X154620000Y-106380000D01*
X143000000Y-110000000D02*
X151000000Y-110000000D01*
X140000000Y-107000000D02*
X143000000Y-110000000D01*
X140000000Y-79000000D02*
X140000000Y-107000000D01*
X151000000Y-68000000D02*
X140000000Y-79000000D01*
X161000000Y-68000000D02*
X151000000Y-68000000D01*
X171220000Y-78220000D02*
X161000000Y-68000000D01*
X174940000Y-100460000D02*
X174940000Y-91940000D01*
X171220000Y-88220000D02*
X171220000Y-82540000D01*
X174940000Y-91940000D02*
X171220000Y-88220000D01*
X168680000Y-80000000D02*
X168680000Y-78680000D01*
X152080000Y-104920000D02*
X152080000Y-103000000D01*
X149000000Y-108000000D02*
X152080000Y-104920000D01*
X144000000Y-108000000D02*
X149000000Y-108000000D01*
X142000000Y-106000000D02*
X144000000Y-108000000D01*
X142000000Y-79000000D02*
X142000000Y-106000000D01*
X151000000Y-70000000D02*
X142000000Y-79000000D01*
X160000000Y-70000000D02*
X151000000Y-70000000D01*
X168680000Y-78680000D02*
X160000000Y-70000000D01*
X172400000Y-100460000D02*
X172400000Y-92400000D01*
X168680000Y-88680000D02*
X168680000Y-82540000D01*
X172400000Y-92400000D02*
X168680000Y-88680000D01*
X166140000Y-80000000D02*
X166140000Y-78140000D01*
X149540000Y-104460000D02*
X149540000Y-103000000D01*
X148000000Y-106000000D02*
X149540000Y-104460000D01*
X145000000Y-106000000D02*
X148000000Y-106000000D01*
X144000000Y-105000000D02*
X145000000Y-106000000D01*
X144000000Y-79000000D02*
X144000000Y-105000000D01*
X151000000Y-72000000D02*
X144000000Y-79000000D01*
X160000000Y-72000000D02*
X151000000Y-72000000D01*
X166140000Y-78140000D02*
X160000000Y-72000000D01*
X169860000Y-100460000D02*
X169860000Y-93860000D01*
X166140000Y-90140000D02*
X166140000Y-82540000D01*
X169860000Y-93860000D02*
X166140000Y-90140000D01*
X163600000Y-80000000D02*
X163600000Y-78600000D01*
X146000000Y-99460000D02*
X147000000Y-100460000D01*
X146000000Y-79000000D02*
X146000000Y-99460000D01*
X151000000Y-74000000D02*
X146000000Y-79000000D01*
X159000000Y-74000000D02*
X151000000Y-74000000D01*
X163600000Y-78600000D02*
X159000000Y-74000000D01*
X167320000Y-100460000D02*
X167320000Y-94320000D01*
X163600000Y-90600000D02*
X163600000Y-82540000D01*
X167320000Y-94320000D02*
X163600000Y-90600000D01*
X161060000Y-80000000D02*
X161060000Y-79060000D01*
X149540000Y-98540000D02*
X149540000Y-100460000D01*
X148000000Y-97000000D02*
X149540000Y-98540000D01*
X148000000Y-79000000D02*
X148000000Y-97000000D01*
X151000000Y-76000000D02*
X148000000Y-79000000D01*
X158000000Y-76000000D02*
X151000000Y-76000000D01*
X161060000Y-79060000D02*
X158000000Y-76000000D01*
X164780000Y-100460000D02*
X164780000Y-94780000D01*
X161000000Y-91000000D02*
X161000000Y-83000000D01*
X164780000Y-94780000D02*
X161000000Y-91000000D01*
X161000000Y-83000000D02*
X161060000Y-82540000D01*
X158520000Y-80000000D02*
X158520000Y-79520000D01*
X158520000Y-79520000D02*
X157000000Y-78000000D01*
X157000000Y-78000000D02*
X152000000Y-78000000D01*
X152000000Y-78000000D02*
X150000000Y-80000000D01*
X150000000Y-80000000D02*
X150000000Y-96000000D01*
X150000000Y-96000000D02*
X152080000Y-98080000D01*
X152080000Y-98080000D02*
X152080000Y-100460000D01*
X162240000Y-100460000D02*
X162240000Y-95240000D01*
X158520000Y-91520000D02*
X158520000Y-82540000D01*
X162240000Y-95240000D02*
X158520000Y-91520000D01*
D14*
G36*
X151912041Y-80000000D02*
X152026115Y-80573489D01*
X152305000Y-80990870D01*
X152305000Y-81549130D01*
X152026115Y-81966511D01*
X151912041Y-82540000D01*
X152026115Y-83113489D01*
X152350971Y-83599670D01*
X152837152Y-83924526D01*
X153410641Y-84038600D01*
X153469359Y-84038600D01*
X154042848Y-83924526D01*
X154529029Y-83599670D01*
X154709992Y-83328839D01*
X155091510Y-83746821D01*
X155620973Y-83994968D01*
X155853000Y-83874469D01*
X155853000Y-82667000D01*
X155833000Y-82667000D01*
X155833000Y-82413000D01*
X155853000Y-82413000D01*
X155853000Y-80127000D01*
X155833000Y-80127000D01*
X155833000Y-79873000D01*
X155853000Y-79873000D01*
X155853000Y-79853000D01*
X156107000Y-79853000D01*
X156107000Y-79873000D01*
X156127000Y-79873000D01*
X156127000Y-80127000D01*
X156107000Y-80127000D01*
X156107000Y-82413000D01*
X156127000Y-82413000D01*
X156127000Y-82667000D01*
X156107000Y-82667000D01*
X156107000Y-83874469D01*
X156339027Y-83994968D01*
X156868490Y-83746821D01*
X157250008Y-83328839D01*
X157385000Y-83530870D01*
X157385000Y-91520000D01*
X157471397Y-91954346D01*
X157717434Y-92322566D01*
X161105000Y-95710133D01*
X161105000Y-99469130D01*
X160970008Y-99671161D01*
X160588490Y-99253179D01*
X160059027Y-99005032D01*
X159827000Y-99125531D01*
X159827000Y-100333000D01*
X159847000Y-100333000D01*
X159847000Y-100587000D01*
X159827000Y-100587000D01*
X159827000Y-100607000D01*
X159573000Y-100607000D01*
X159573000Y-100587000D01*
X159553000Y-100587000D01*
X159553000Y-100333000D01*
X159573000Y-100333000D01*
X159573000Y-99125531D01*
X159340973Y-99005032D01*
X158811510Y-99253179D01*
X158429992Y-99671161D01*
X158249029Y-99400330D01*
X157762848Y-99075474D01*
X157189359Y-98961400D01*
X157130641Y-98961400D01*
X156557152Y-99075474D01*
X156070971Y-99400330D01*
X155890000Y-99671172D01*
X155709029Y-99400330D01*
X155222848Y-99075474D01*
X154649359Y-98961400D01*
X154590641Y-98961400D01*
X154017152Y-99075474D01*
X153530971Y-99400330D01*
X153350000Y-99671172D01*
X153215000Y-99469130D01*
X153215000Y-98080000D01*
X153128603Y-97645654D01*
X152882566Y-97277434D01*
X151135000Y-95529868D01*
X151135000Y-80470132D01*
X151988247Y-79616885D01*
X151912041Y-80000000D01*
X151912041Y-80000000D01*
G37*
X151912041Y-80000000D02*
X152026115Y-80573489D01*
X152305000Y-80990870D01*
X152305000Y-81549130D01*
X152026115Y-81966511D01*
X151912041Y-82540000D01*
X152026115Y-83113489D01*
X152350971Y-83599670D01*
X152837152Y-83924526D01*
X153410641Y-84038600D01*
X153469359Y-84038600D01*
X154042848Y-83924526D01*
X154529029Y-83599670D01*
X154709992Y-83328839D01*
X155091510Y-83746821D01*
X155620973Y-83994968D01*
X155853000Y-83874469D01*
X155853000Y-82667000D01*
X155833000Y-82667000D01*
X155833000Y-82413000D01*
X155853000Y-82413000D01*
X155853000Y-80127000D01*
X155833000Y-80127000D01*
X155833000Y-79873000D01*
X155853000Y-79873000D01*
X155853000Y-79853000D01*
X156107000Y-79853000D01*
X156107000Y-79873000D01*
X156127000Y-79873000D01*
X156127000Y-80127000D01*
X156107000Y-80127000D01*
X156107000Y-82413000D01*
X156127000Y-82413000D01*
X156127000Y-82667000D01*
X156107000Y-82667000D01*
X156107000Y-83874469D01*
X156339027Y-83994968D01*
X156868490Y-83746821D01*
X157250008Y-83328839D01*
X157385000Y-83530870D01*
X157385000Y-91520000D01*
X157471397Y-91954346D01*
X157717434Y-92322566D01*
X161105000Y-95710133D01*
X161105000Y-99469130D01*
X160970008Y-99671161D01*
X160588490Y-99253179D01*
X160059027Y-99005032D01*
X159827000Y-99125531D01*
X159827000Y-100333000D01*
X159847000Y-100333000D01*
X159847000Y-100587000D01*
X159827000Y-100587000D01*
X159827000Y-100607000D01*
X159573000Y-100607000D01*
X159573000Y-100587000D01*
X159553000Y-100587000D01*
X159553000Y-100333000D01*
X159573000Y-100333000D01*
X159573000Y-99125531D01*
X159340973Y-99005032D01*
X158811510Y-99253179D01*
X158429992Y-99671161D01*
X158249029Y-99400330D01*
X157762848Y-99075474D01*
X157189359Y-98961400D01*
X157130641Y-98961400D01*
X156557152Y-99075474D01*
X156070971Y-99400330D01*
X155890000Y-99671172D01*
X155709029Y-99400330D01*
X155222848Y-99075474D01*
X154649359Y-98961400D01*
X154590641Y-98961400D01*
X154017152Y-99075474D01*
X153530971Y-99400330D01*
X153350000Y-99671172D01*
X153215000Y-99469130D01*
X153215000Y-98080000D01*
X153128603Y-97645654D01*
X152882566Y-97277434D01*
X151135000Y-95529868D01*
X151135000Y-80470132D01*
X151988247Y-79616885D01*
X151912041Y-80000000D01*
G36*
X182785000Y-83530870D02*
X182785000Y-87920000D01*
X182871397Y-88354346D01*
X183008811Y-88560000D01*
X183117434Y-88722566D01*
X183965000Y-89570132D01*
X183965000Y-99469130D01*
X183830008Y-99671161D01*
X183448490Y-99253179D01*
X182919027Y-99005032D01*
X182687000Y-99125531D01*
X182687000Y-100333000D01*
X182707000Y-100333000D01*
X182707000Y-100587000D01*
X182687000Y-100587000D01*
X182687000Y-100607000D01*
X182433000Y-100607000D01*
X182433000Y-100587000D01*
X182413000Y-100587000D01*
X182413000Y-100333000D01*
X182433000Y-100333000D01*
X182433000Y-99125531D01*
X182200973Y-99005032D01*
X181671510Y-99253179D01*
X181289992Y-99671161D01*
X181155000Y-99469130D01*
X181155000Y-90450132D01*
X182182566Y-89422567D01*
X182428603Y-89054346D01*
X182434924Y-89022566D01*
X182515000Y-88620000D01*
X182515000Y-83530870D01*
X182650000Y-83328828D01*
X182785000Y-83530870D01*
X182785000Y-83530870D01*
G37*
X182785000Y-83530870D02*
X182785000Y-87920000D01*
X182871397Y-88354346D01*
X183008811Y-88560000D01*
X183117434Y-88722566D01*
X183965000Y-89570132D01*
X183965000Y-99469130D01*
X183830008Y-99671161D01*
X183448490Y-99253179D01*
X182919027Y-99005032D01*
X182687000Y-99125531D01*
X182687000Y-100333000D01*
X182707000Y-100333000D01*
X182707000Y-100587000D01*
X182687000Y-100587000D01*
X182687000Y-100607000D01*
X182433000Y-100607000D01*
X182433000Y-100587000D01*
X182413000Y-100587000D01*
X182413000Y-100333000D01*
X182433000Y-100333000D01*
X182433000Y-99125531D01*
X182200973Y-99005032D01*
X181671510Y-99253179D01*
X181289992Y-99671161D01*
X181155000Y-99469130D01*
X181155000Y-90450132D01*
X182182566Y-89422567D01*
X182428603Y-89054346D01*
X182434924Y-89022566D01*
X182515000Y-88620000D01*
X182515000Y-83530870D01*
X182650000Y-83328828D01*
X182785000Y-83530870D01*
G36*
X186197434Y-71197434D02*
X180577434Y-76817434D01*
X180331397Y-77185654D01*
X180245000Y-77620000D01*
X180245000Y-79009130D01*
X180110008Y-79211161D01*
X179728490Y-78793179D01*
X179199027Y-78545032D01*
X178967000Y-78665531D01*
X178967000Y-79873000D01*
X178987000Y-79873000D01*
X178987000Y-80127000D01*
X178967000Y-80127000D01*
X178967000Y-82413000D01*
X178987000Y-82413000D01*
X178987000Y-82667000D01*
X178967000Y-82667000D01*
X178967000Y-83874469D01*
X179199027Y-83994968D01*
X179728490Y-83746821D01*
X180110008Y-83328839D01*
X180245000Y-83530870D01*
X180245000Y-88149867D01*
X179217434Y-89177434D01*
X178971397Y-89545654D01*
X178885000Y-89980000D01*
X178885000Y-99469130D01*
X178750000Y-99671172D01*
X178615000Y-99469130D01*
X178615000Y-90480000D01*
X178528603Y-90045654D01*
X178484734Y-89980000D01*
X178282566Y-89677433D01*
X174895000Y-86289868D01*
X174895000Y-83530870D01*
X175030000Y-83328828D01*
X175210971Y-83599670D01*
X175697152Y-83924526D01*
X176270641Y-84038600D01*
X176329359Y-84038600D01*
X176902848Y-83924526D01*
X177389029Y-83599670D01*
X177569992Y-83328839D01*
X177951510Y-83746821D01*
X178480973Y-83994968D01*
X178713000Y-83874469D01*
X178713000Y-82667000D01*
X178693000Y-82667000D01*
X178693000Y-82413000D01*
X178713000Y-82413000D01*
X178713000Y-80127000D01*
X178693000Y-80127000D01*
X178693000Y-79873000D01*
X178713000Y-79873000D01*
X178713000Y-78665531D01*
X178480973Y-78545032D01*
X177951510Y-78793179D01*
X177569992Y-79211161D01*
X177389029Y-78940330D01*
X176902848Y-78615474D01*
X176329359Y-78501400D01*
X176270641Y-78501400D01*
X175697152Y-78615474D01*
X175210971Y-78940330D01*
X175030000Y-79211172D01*
X174895000Y-79009130D01*
X174895000Y-75710132D01*
X179470132Y-71135000D01*
X186290873Y-71135000D01*
X186197434Y-71197434D01*
X186197434Y-71197434D01*
G37*
X186197434Y-71197434D02*
X180577434Y-76817434D01*
X180331397Y-77185654D01*
X180245000Y-77620000D01*
X180245000Y-79009130D01*
X180110008Y-79211161D01*
X179728490Y-78793179D01*
X179199027Y-78545032D01*
X178967000Y-78665531D01*
X178967000Y-79873000D01*
X178987000Y-79873000D01*
X178987000Y-80127000D01*
X178967000Y-80127000D01*
X178967000Y-82413000D01*
X178987000Y-82413000D01*
X178987000Y-82667000D01*
X178967000Y-82667000D01*
X178967000Y-83874469D01*
X179199027Y-83994968D01*
X179728490Y-83746821D01*
X180110008Y-83328839D01*
X180245000Y-83530870D01*
X180245000Y-88149867D01*
X179217434Y-89177434D01*
X178971397Y-89545654D01*
X178885000Y-89980000D01*
X178885000Y-99469130D01*
X178750000Y-99671172D01*
X178615000Y-99469130D01*
X178615000Y-90480000D01*
X178528603Y-90045654D01*
X178484734Y-89980000D01*
X178282566Y-89677433D01*
X174895000Y-86289868D01*
X174895000Y-83530870D01*
X175030000Y-83328828D01*
X175210971Y-83599670D01*
X175697152Y-83924526D01*
X176270641Y-84038600D01*
X176329359Y-84038600D01*
X176902848Y-83924526D01*
X177389029Y-83599670D01*
X177569992Y-83328839D01*
X177951510Y-83746821D01*
X178480973Y-83994968D01*
X178713000Y-83874469D01*
X178713000Y-82667000D01*
X178693000Y-82667000D01*
X178693000Y-82413000D01*
X178713000Y-82413000D01*
X178713000Y-80127000D01*
X178693000Y-80127000D01*
X178693000Y-79873000D01*
X178713000Y-79873000D01*
X178713000Y-78665531D01*
X178480973Y-78545032D01*
X177951510Y-78793179D01*
X177569992Y-79211161D01*
X177389029Y-78940330D01*
X176902848Y-78615474D01*
X176329359Y-78501400D01*
X176270641Y-78501400D01*
X175697152Y-78615474D01*
X175210971Y-78940330D01*
X175030000Y-79211172D01*
X174895000Y-79009130D01*
X174895000Y-75710132D01*
X179470132Y-71135000D01*
X186290873Y-71135000D01*
X186197434Y-71197434D01*
M02*
